<svg version="1.0" preserveAspectRatio="xMidYMid meet" viewBox="67.5 142.49999658000002 247.5 80.99999805600001" zoomAndPan="magnify" xmlns:xlink="http://www.w3.org/1999/xlink" xmlns="http://www.w3.org/2000/svg" style="max-height: 500px" width="247.5" height="80.99999805600001"><defs><g/><clipPath id="e1449a8074"><path clip-rule="nonzero" d="M 69.25 144.707031 L 149.5 144.707031 L 149.5 222 L 69.25 222 Z M 69.25 144.707031"/></clipPath><clipPath id="aa685a9feb"><path clip-rule="nonzero" d="M 76.933594 159.449219 L 141.433594 159.449219 L 141.433594 195.449219 L 76.933594 195.449219 Z M 76.933594 159.449219"/></clipPath><clipPath id="1f265e13e5"><path clip-rule="nonzero" d="M 79.136719 148.320312 L 139.136719 148.320312 L 139.136719 199 L 79.136719 199 Z M 79.136719 148.320312"/></clipPath></defs><g clip-path="url(#e1449a8074)"><path fill-rule="nonzero" fill-opacity="1" d="M 137.050781 144.707031 L 81.433594 144.707031 C 74.726562 144.707031 69.292969 150.144531 69.292969 156.847656 L 69.292969 190.605469 C 69.292969 197.308594 74.726562 202.746094 81.433594 202.746094 L 91.847656 202.746094 C 94.101562 202.746094 96.183594 203.945312 97.3125 205.898438 L 104.90625 219.058594 C 106.832031 222.394531 111.648438 222.394531 113.578125 219.058594 L 121.175781 205.898438 C 122.300781 203.945312 124.382812 202.746094 126.636719 202.746094 L 137.050781 202.746094 C 143.757812 202.746094 149.191406 197.308594 149.191406 190.605469 L 149.191406 156.847656 C 149.191406 150.144531 143.757812 144.707031 137.050781 144.707031" fill="#ff0000"/></g><path fill-rule="nonzero" fill-opacity="1" d="M 107.089844 169.75 C 107.089844 173.226562 104.273438 176.042969 100.796875 176.042969 C 97.324219 176.042969 94.507812 173.226562 94.507812 169.75 C 94.507812 166.277344 97.324219 163.460938 100.796875 163.460938 C 104.273438 163.460938 107.089844 166.277344 107.089844 169.75" fill="#ffffff"/><path fill-rule="nonzero" fill-opacity="1" d="M 111.691406 187.507812 L 89.902344 187.507812 L 89.902344 184.269531 C 89.902344 180.417969 93.027344 177.296875 96.878906 177.296875 L 104.714844 177.296875 C 108.570312 177.296875 111.691406 180.417969 111.691406 184.269531 L 111.691406 187.507812" fill="#ffffff"/><path fill-rule="nonzero" fill-opacity="1" d="M 125.984375 168.054688 L 125.921875 168.054688 L 122.46875 169.921875 L 121.949219 167.871094 L 126.289062 165.550781 L 128.582031 165.550781 L 128.582031 185.417969 L 125.984375 185.417969 L 125.984375 168.054688" fill="#ffffff"/><g clip-path="url(#aa685a9feb)"><path fill-rule="nonzero" fill-opacity="1" d="M 76.964844 159.449219 L 141.511719 159.449219 L 141.511719 195.308594 L 76.964844 195.308594 Z M 76.964844 159.449219" fill="#ff0000"/></g><g clip-path="url(#1f265e13e5)"><path fill-rule="nonzero" fill-opacity="1" d="M 81.378906 178.023438 C 81.472656 179.144531 81.941406 180.359375 82.78125 181.015625 L 100.828125 196.910156 C 102.789062 198.964844 105.6875 198.59375 108.210938 197.1875 C 112.886719 194.476562 116.722656 187.933594 116.722656 182.511719 C 116.722656 180.734375 116.253906 179.238281 115.503906 178.117188 L 118.683594 176.246094 L 123.453125 180.453125 C 125.414062 182.511719 128.3125 182.136719 130.839844 180.640625 C 135.511719 177.929688 139.347656 171.382812 139.347656 165.960938 C 139.347656 163.0625 138.226562 160.351562 135.417969 159.792969 L 114.289062 149.695312 C 113.355469 149.226562 112.046875 149.320312 111.019531 149.695312 C 110.925781 149.695312 108.960938 148.757812 109.054688 148.757812 C 108.121094 148.476562 107.089844 148.664062 106.0625 149.320312 C 103.445312 150.816406 101.480469 154.367188 101.480469 157.265625 C 101.480469 158.480469 101.855469 159.417969 102.417969 160.070312 C 102.507812 160.164062 102.230469 159.886719 104.003906 161.472656 C 104.191406 162.597656 104.566406 163.71875 105.5 164.464844 L 106.902344 165.679688 L 99.703125 169.890625 C 90.824219 165.589844 96.339844 168.207031 91.289062 165.867188 C 90.449219 165.589844 89.421875 165.679688 88.390625 166.054688 C 88.296875 166.054688 86.617188 165.214844 86.707031 165.308594 C 85.773438 165.027344 84.746094 165.214844 83.71875 165.867188 C 81.097656 167.363281 79.136719 170.917969 79.136719 173.816406 C 79.136719 175.03125 79.507812 175.964844 80.070312 176.621094 C 80.070312 176.902344 81.097656 177.835938 81.378906 178.023438 Z M 107.746094 196.347656 C 103.632812 198.683594 100.171875 197.097656 100.171875 192.046875 C 100.171875 187 103.726562 180.734375 108.210938 178.210938 C 112.421875 175.777344 115.785156 177.554688 115.785156 182.511719 C 115.785156 187.558594 112.140625 193.730469 107.746094 196.347656 Z M 114.851562 177.367188 C 114.289062 176.902344 113.636719 176.433594 112.699219 176.246094 L 109.613281 174.75 C 121.394531 167.925781 117.375 170.261719 118.214844 169.703125 C 117.84375 171.011719 117.5625 172.601562 117.5625 173.441406 C 117.5625 174.28125 117.84375 175.125 118.03125 175.40625 C 117.9375 175.59375 114.664062 177.460938 114.851562 177.367188 Z M 138.410156 166.054688 C 138.410156 171.105469 134.859375 177.367188 130.371094 179.894531 C 126.070312 182.324219 122.796875 180.453125 122.796875 175.59375 C 122.796875 170.542969 126.351562 164.277344 130.839844 161.753906 C 135.046875 159.230469 138.316406 161.195312 138.410156 166.054688 Z M 102.976562 159.511719 C 102.507812 159.042969 102.324219 158.296875 102.324219 157.359375 C 102.324219 154.742188 104.191406 151.46875 106.4375 150.160156 C 107.089844 149.789062 107.933594 149.507812 108.679688 149.695312 C 108.773438 149.695312 109.988281 150.253906 109.894531 150.253906 C 108.585938 151.003906 107.371094 152.125 106.4375 153.527344 C 105.6875 154.554688 105.035156 155.769531 104.566406 157.078125 C 104.191406 158.203125 103.910156 159.324219 103.910156 160.351562 C 103.539062 159.976562 103.164062 159.699219 102.976562 159.511719 Z M 105.78125 163.625 C 104.378906 162.222656 104.753906 159.324219 105.5 157.359375 C 105.875 156.238281 106.53125 155.117188 107.277344 154.089844 C 108.210938 152.777344 109.335938 151.75 110.457031 151.097656 C 112.234375 150.066406 113.449219 150.253906 114.007812 150.628906 L 133.269531 159.886719 C 132.335938 160.070312 131.398438 160.445312 130.371094 161.007812 C 125.695312 163.71875 121.863281 170.261719 121.863281 175.683594 C 121.863281 176.621094 121.957031 177.460938 122.238281 178.210938 C 119.433594 175.683594 118.589844 175.5 118.589844 173.628906 C 118.589844 172.507812 118.964844 170.167969 119.621094 169.046875 C 119.710938 168.859375 119.710938 168.578125 119.433594 168.394531 C 119.246094 168.300781 113.449219 164.933594 111.296875 163.71875 C 111.109375 163.625 111.019531 163.625 110.832031 163.71875 L 107.746094 165.496094 C 107.652344 165.308594 105.78125 163.625 105.78125 163.625 Z M 110.925781 164.464844 L 118.125 168.671875 C 104.941406 176.339844 109.429688 173.722656 108.492188 174.28125 L 100.546875 170.449219 C 110.457031 164.746094 111.019531 164.464844 110.925781 164.464844 Z M 90.917969 166.898438 C 96.898438 169.703125 107.464844 174.84375 110.550781 176.246094 C 109.613281 176.433594 108.679688 176.808594 107.746094 177.367188 C 102.230469 180.546875 98.023438 189.054688 99.609375 194.476562 L 83.4375 180.265625 C 81.753906 178.863281 82.128906 175.871094 82.875 173.816406 C 83.71875 171.382812 85.585938 168.859375 87.832031 167.550781 C 88.765625 166.992188 89.886719 166.617188 90.917969 166.898438 Z M 84.089844 166.804688 C 84.746094 166.429688 85.585938 166.148438 86.335938 166.335938 C 86.429688 166.335938 87.363281 166.804688 87.269531 166.710938 C 84.839844 168.113281 82.875 170.917969 81.941406 173.535156 C 81.566406 174.65625 81.285156 175.683594 81.285156 176.714844 C 81.191406 176.714844 80.632812 176.152344 80.632812 176.058594 C 80.164062 175.59375 79.976562 174.84375 79.976562 173.910156 C 79.882812 171.382812 81.847656 168.113281 84.089844 166.804688 Z M 84.089844 166.804688" fill="#ffffff"/></g><path fill-rule="nonzero" fill-opacity="1" d="M 130.277344 164 C 127.097656 165.867188 124.574219 170.261719 124.574219 174.003906 C 124.574219 177.835938 127.378906 179.519531 130.839844 177.554688 C 134.015625 175.683594 136.542969 171.292969 136.542969 167.644531 C 136.542969 163.71875 133.644531 162.128906 130.277344 164 Z M 125.789062 175.964844 C 125.507812 175.3125 125.414062 174.65625 125.414062 174.003906 C 125.414062 170.636719 127.847656 166.429688 130.746094 164.746094 C 131.773438 164.1875 132.894531 163.8125 134.015625 164.1875 C 134.296875 164.746094 134.390625 165.402344 134.390625 166.242188 C 134.390625 169.609375 131.960938 173.816406 129.0625 175.5 C 127.847656 176.152344 126.632812 176.339844 125.789062 175.964844 Z M 125.789062 175.964844" fill="#ffffff"/><path fill-rule="nonzero" fill-opacity="1" d="M 107.746094 180.453125 C 104.566406 182.324219 102.042969 186.71875 102.042969 190.457031 C 102.042969 194.292969 104.847656 195.972656 108.304688 194.011719 C 111.484375 192.140625 114.007812 187.746094 114.007812 184.101562 C 113.914062 180.171875 111.109375 178.492188 107.746094 180.453125 Z M 103.164062 192.421875 C 102.882812 191.765625 102.789062 191.113281 102.789062 190.457031 C 102.789062 187.09375 105.222656 182.882812 108.121094 181.203125 C 109.148438 180.640625 110.269531 180.265625 111.390625 180.640625 C 111.671875 181.203125 111.765625 181.855469 111.765625 182.699219 C 111.765625 186.0625 109.335938 190.269531 106.4375 191.953125 C 105.222656 192.609375 104.003906 192.796875 103.164062 192.421875 Z M 103.164062 192.421875" fill="#ffffff"/><path fill-rule="nonzero" fill-opacity="1" d="M 83.996094 176.996094 C 83.996094 176.808594 83.808594 176.621094 83.625 176.621094 C 83.4375 176.621094 83.25 176.808594 83.25 176.996094 C 83.25 177.742188 83.4375 178.398438 83.625 178.863281 C 83.71875 179.050781 83.902344 179.050781 84.089844 178.957031 C 84.277344 178.863281 84.277344 178.675781 84.183594 178.492188 C 84.089844 178.210938 83.996094 177.648438 83.996094 176.996094 Z M 83.996094 176.996094" fill="#ffffff"/><path fill-rule="nonzero" fill-opacity="1" d="M 84.558594 179.425781 C 84.464844 179.613281 84.464844 179.800781 84.558594 179.894531 L 86.148438 181.296875 C 86.335938 181.480469 86.523438 181.390625 86.707031 181.203125 C 86.800781 181.109375 86.800781 180.921875 86.617188 180.734375 L 85.027344 179.332031 C 84.933594 179.238281 84.652344 179.238281 84.558594 179.425781 Z M 84.558594 179.425781" fill="#ffffff"/><g fill-opacity="1" fill="#000000"><g transform="translate(155.433172, 164.423207)"><g><path d="M 6.015625 -0.546875 L 5.859375 -0.953125 L 5.640625 -1.421875 L 3.65625 -7 L 3.4375 -7.390625 L 2.75 -9.234375 L 2.609375 -9.765625 L 1.59375 -12.515625 L 1.375 -12.9375 L 0.34375 -15.734375 L 0.21875 -16.390625 L 0.3125 -16.96875 L 0.828125 -17.109375 L 1.34375 -17.140625 L 1.796875 -17.203125 L 2.234375 -17.109375 L 4.203125 -17.078125 L 4.65625 -16.859375 L 5.109375 -16.46875 L 5.296875 -15.984375 L 5.40625 -15.484375 L 5.6875 -14.53125 L 5.890625 -14.109375 L 7.46875 -8.765625 L 7.5625 -8.171875 L 7.75 -8.203125 L 8.125 -9.125 L 8.21875 -9.640625 L 8.46875 -10.015625 L 9.359375 -12.859375 L 9.71875 -13.75 L 10.53125 -16.171875 L 10.953125 -16.671875 L 11.4375 -16.90625 L 11.984375 -16.90625 L 12.5 -16.625 L 12.84375 -16.125 L 13.03125 -15.6875 L 13.234375 -15.265625 L 13.53125 -14.28125 L 13.71875 -13.8125 L 13.96875 -12.890625 L 15.015625 -10.109375 L 15.140625 -9.625 L 15.640625 -8.21875 L 15.875 -8.203125 L 16.03125 -8.671875 L 16.203125 -9.703125 L 16.515625 -10.734375 L 16.625 -11.21875 L 17.96875 -15.53125 L 18.1875 -15.953125 L 18.3125 -16.421875 L 18.734375 -16.9375 L 19.25 -17.1875 L 19.71875 -17.109375 L 20.234375 -17.15625 L 21.203125 -17.109375 L 22.0625 -17.15625 L 22.5625 -17.078125 L 23.046875 -16.96875 L 23.203125 -16.375 L 22.734375 -14.875 L 22.484375 -14.4375 L 22.359375 -13.890625 L 20.796875 -9.71875 L 20.6875 -9.296875 L 20.46875 -8.859375 L 20.28125 -8.171875 L 19.46875 -6.09375 L 19.25 -5.671875 L 17.765625 -1.40625 L 17.546875 -0.953125 L 17.40625 -0.484375 L 17.03125 -0.046875 L 16.453125 0.140625 L 16.03125 0.21875 L 15.5625 0.25 L 15 -0.046875 L 14.53125 -0.5625 L 14.390625 -1.03125 L 14.015625 -1.84375 L 12.609375 -5.625 L 12.203125 -6.453125 L 12.046875 -6.96875 L 11.8125 -7.390625 L 11.5625 -7.46875 L 11.25 -6.5 L 10.796875 -5.578125 L 10.65625 -5.0625 L 9.890625 -3.234375 L 9.765625 -2.84375 L 9.546875 -2.328125 L 9.421875 -1.921875 L 9.1875 -1.46875 L 9.03125 -0.9375 L 8.8125 -0.515625 L 8.421875 0 L 7.875 0.203125 L 6.953125 0.21875 L 6.40625 -0.09375 Z M 6.015625 -0.546875"/></g></g></g><g fill-opacity="1" fill="#000000"><g transform="translate(179.579792, 164.423207)"><g><path d="M 1.796875 -0.6875 L 1.859375 -2.703125 L 1.796875 -3.140625 L 1.796875 -10.484375 L 1.84375 -10.96875 L 1.8125 -11.5625 L 1.859375 -12.5 L 1.765625 -13.5 L 1.8125 -13.984375 L 1.765625 -15.90625 L 1.8125 -16.453125 L 2.0625 -16.9375 L 2.609375 -17.1875 L 5.03125 -17.140625 L 5.578125 -17.1875 L 6.09375 -16.90625 L 6.3125 -16.453125 L 6.359375 -15.53125 L 6.3125 -15 L 6.28125 -13.078125 L 6.3125 -12.640625 L 6.3125 -12.125 L 6.328125 -11.59375 L 6.578125 -11.125 L 7.046875 -10.90625 L 8.5 -10.875 L 8.9375 -10.921875 L 9.453125 -10.875 L 10.40625 -10.96875 L 10.875 -10.90625 L 11.359375 -11.171875 L 11.640625 -11.65625 L 11.65625 -13.578125 L 11.59375 -14.046875 L 11.640625 -15.046875 L 11.59375 -15.46875 L 11.609375 -16.390625 L 11.859375 -16.984375 L 12.5625 -17.15625 L 15.390625 -17.140625 L 15.875 -16.9375 L 16.109375 -16.421875 L 16.078125 -4.09375 L 16.15625 -3.703125 L 16.078125 -2.921875 L 16.125 -0.6875 L 15.828125 -0.265625 L 15.359375 0.046875 L 14.359375 -0.03125 L 13.875 0.03125 L 12.59375 0.03125 L 11.875 -0.296875 L 11.609375 -0.6875 L 11.59375 -6.109375 L 11.34375 -6.578125 L 10.875 -6.84375 L 10.4375 -6.84375 L 9.921875 -6.921875 L 7.015625 -6.890625 L 6.5 -6.578125 L 6.28125 -6.0625 L 6.28125 -1.71875 L 6.328125 -1.171875 L 6.28125 -0.71875 L 6.09375 -0.25 L 5.578125 0.046875 L 4.546875 0.03125 L 4.03125 0.078125 L 3.046875 0.03125 L 2.546875 0.046875 L 2.09375 -0.21875 Z M 1.796875 -0.6875"/></g></g></g><g fill-opacity="1" fill="#000000"><g transform="translate(198.278751, 164.423207)"><g><path d="M 9.84375 0.3125 L 8.375 0.25 L 6.28125 -0.375 L 5.8125 -0.5625 L 4.140625 -1.453125 L 3.828125 -1.8125 L 3.140625 -2.484375 L 1.984375 -4.046875 L 1.75 -4.484375 L 1.59375 -5 L 1.234375 -5.84375 L 0.953125 -7.390625 L 1.0625 -10.234375 L 1.25 -11.296875 L 1.71875 -12.640625 L 1.9375 -13.0625 L 2.78125 -14.28125 L 3.4375 -15.015625 L 4.21875 -15.5625 L 4.5625 -15.859375 L 5.8125 -16.640625 L 6.75 -16.890625 L 7.1875 -17.078125 L 7.6875 -17.234375 L 8.171875 -17.328125 L 9.890625 -17.421875 L 11.046875 -17.40625 L 14.265625 -16.390625 L 15.515625 -15.609375 L 16.5625 -14.65625 L 16.890625 -14.21875 L 17.1875 -13.921875 L 17.5 -13.5 L 17.671875 -13.0625 L 18.109375 -12.25 L 18.234375 -11.6875 L 18.4375 -11.171875 L 18.625 -10.265625 L 18.75 -8.5625 L 18.625 -6.84375 L 18.53125 -6.3125 L 18.390625 -5.921875 L 18.3125 -5.421875 L 18.140625 -4.953125 L 17.1875 -3.265625 L 16.859375 -2.828125 L 15.140625 -1.171875 L 12.953125 -0.203125 L 12.03125 0.09375 Z M 9.15625 -4 L 10.578125 -4.046875 L 11.046875 -4.171875 L 11.484375 -4.21875 L 11.875 -4.4375 L 12.328125 -4.640625 L 13.078125 -5.234375 L 13.375 -5.671875 L 13.59375 -6.03125 L 13.875 -6.40625 L 14.09375 -7.40625 L 14.234375 -8.640625 L 14.140625 -9.703125 L 13.96875 -10.140625 L 13.8125 -10.625 L 13.625 -11.078125 L 13.0625 -11.90625 L 12.296875 -12.46875 L 11 -13.03125 L 9.8125 -13.109375 L 8.6875 -13.015625 L 8.171875 -12.890625 L 7.734375 -12.671875 L 7.015625 -12.171875 L 6.65625 -11.859375 L 6.328125 -11.46875 L 6.109375 -11.046875 L 5.8125 -10.703125 L 5.671875 -10.265625 L 5.5 -9.359375 L 5.46875 -8.609375 L 5.59375 -7.390625 L 6.0625 -6.015625 L 6.375 -5.671875 L 6.625 -5.328125 L 7.390625 -4.65625 L 8.21875 -4.21875 L 8.671875 -4.171875 Z M 9.15625 -4"/></g></g></g><g fill-opacity="1" fill="#000000"><g transform="translate(218.695444, 164.423207)"><g/></g></g><g fill-opacity="1" fill="#000000"><g transform="translate(226.08193, 164.423207)"><g><path d="M 14.484375 0.046875 L 13.96875 0 L 13.40625 -0.25 L 12.90625 -0.609375 L 12.765625 -1.0625 L 12.546875 -1.515625 L 12.078125 -1.921875 L 11.53125 -2.1875 L 11 -2.109375 L 10.5625 -2.15625 L 8.15625 -2.140625 L 7.703125 -2.203125 L 6.671875 -2.109375 L 6.203125 -2.1875 L 5.6875 -1.921875 L 5.234375 -1.453125 L 4.78125 -0.640625 L 4.3125 -0.203125 L 3.75 -0.03125 L 2.375 0.03125 L 1.890625 -0.03125 L 0.9375 0.03125 L 0.4375 -0.125 L 0.3125 -0.734375 L 0.46875 -1.234375 L 0.953125 -2.203125 L 1.078125 -2.65625 L 1.34375 -3 L 1.71875 -3.984375 L 2.15625 -4.765625 L 2.328125 -5.25 L 2.578125 -5.625 L 2.71875 -6.15625 L 5.234375 -11.421875 L 5.375 -11.859375 L 5.640625 -12.328125 L 5.765625 -12.8125 L 6.03125 -13.1875 L 7.015625 -15.4375 L 7.234375 -15.78125 L 7.40625 -16.28125 L 7.640625 -16.6875 L 8.078125 -17.109375 L 8.859375 -17.375 L 9.671875 -17.140625 L 10.09375 -16.6875 L 10.5625 -15.828125 L 10.703125 -15.390625 L 10.96875 -14.953125 L 11.125 -14.453125 L 12.734375 -11.046875 L 12.90625 -10.53125 L 13.421875 -9.625 L 13.578125 -9.234375 L 13.796875 -8.859375 L 13.9375 -8.328125 L 14.1875 -7.859375 L 14.4375 -7.484375 L 15.359375 -5.25 L 15.859375 -4.375 L 16.203125 -3.46875 L 16.859375 -2.1875 L 17.234375 -1.28125 L 17.40625 -0.71875 L 17.328125 -0.125 L 16.640625 0 L 15.875 0.03125 L 15.421875 -0.03125 Z M 8.90625 -6.0625 L 9.890625 -6.09375 L 10.265625 -6.28125 L 10.359375 -6.71875 L 9.203125 -9.421875 L 8.859375 -9.625 L 8.59375 -9.40625 L 7.4375 -6.75 L 7.46875 -6.28125 L 7.859375 -6.109375 L 8.421875 -6.15625 Z M 8.90625 -6.0625"/></g></g></g><g fill-opacity="1" fill="#000000"><g transform="translate(244.633659, 164.423207)"><g><path d="M 1.984375 -11.21875 L 2.015625 -11.515625 L 2.15625 -11.734375 L 2.265625 -12.296875 L 2.375 -12.609375 L 2.1875 -12.953125 L 1.9375 -13.0625 L 1.640625 -13.203125 L 1.375 -13.40625 L 1.203125 -13.625 L 0.890625 -14.15625 L 0.828125 -14.40625 L 0.71875 -14.703125 L 0.765625 -15.3125 L 0.890625 -15.859375 L 0.984375 -16.125 L 1.125 -16.375 L 1.515625 -16.796875 L 1.765625 -16.9375 L 2.28125 -17.1875 L 2.53125 -17.234375 L 2.828125 -17.3125 L 3.40625 -17.3125 L 4.265625 -17.109375 L 4.515625 -16.90625 L 4.765625 -16.8125 L 5 -16.625 L 5.328125 -16.15625 L 5.578125 -15.59375 L 5.625 -15.296875 L 5.578125 -14.671875 L 5.34375 -13.84375 L 5.171875 -13.5 L 5.15625 -13.234375 L 5.0625 -12.953125 L 4.890625 -12.6875 L 4.46875 -11.1875 L 4.03125 -10.90625 L 3.734375 -10.921875 L 2.78125 -10.90625 L 2.484375 -10.953125 L 2.1875 -10.953125 Z M 1.984375 -11.21875"/></g></g></g><g fill-opacity="1" fill="#000000"><g transform="translate(251.578437, 164.423207)"><g><path d="M 8.21875 0.09375 L 7.734375 -0.03125 L 6.53125 -0.03125 L 5.796875 0.078125 L 4.8125 -0.03125 L 4.3125 0.03125 L 3.5625 0.046875 L 2.84375 -0.046875 L 2.375 0 L 1.921875 0 L 1.421875 -0.21875 L 1.171875 -0.890625 L 1.25 -3.140625 L 1.515625 -3.578125 L 3.140625 -4.078125 L 3.40625 -4.8125 L 3.34375 -12.34375 L 3.125 -13.015625 L 2.65625 -13.296875 L 2.15625 -13.296875 L 1.625 -13.578125 L 1.34375 -14.0625 L 1.40625 -14.53125 L 1.328125 -16.34375 L 1.578125 -16.9375 L 2.0625 -17.1875 L 2.625 -17.1875 L 3.09375 -17.109375 L 5.109375 -17.109375 L 5.59375 -17.203125 L 6.03125 -17.15625 L 9.015625 -17.15625 L 9.453125 -16.890625 L 9.75 -16.421875 L 9.71875 -13.984375 L 9.46875 -13.59375 L 8.953125 -13.40625 L 8.46875 -13.328125 L 7.921875 -13.109375 L 7.75 -12.546875 L 7.65625 -10.0625 L 7.75 -8.296875 L 7.703125 -7.75 L 7.734375 -5.0625 L 7.65625 -4.59375 L 7.953125 -4.03125 L 8.546875 -3.828125 L 9.0625 -3.828125 L 9.59375 -3.5625 L 9.890625 -3.09375 L 9.890625 -0.65625 L 9.640625 -0.203125 L 9.203125 0.046875 Z M 8.21875 0.09375"/></g></g></g><g fill-opacity="1" fill="#000000"><g transform="translate(263.455561, 164.423207)"><g><path d="M 14.484375 -0.421875 L 14.109375 -0.734375 L 13.46875 -1.453125 L 9.671875 -5.234375 L 9.25 -5.5 L 8.9375 -5.859375 L 7.1875 -7.53125 L 6.875 -7.953125 L 6.546875 -8.078125 L 6.375 -7.65625 L 6.328125 -7.171875 L 6.3125 -0.953125 L 6.0625 -0.203125 L 5.578125 0.046875 L 5.0625 0.078125 L 4.09375 0 L 3.5625 0.046875 L 2.546875 0 L 2.03125 -0.171875 L 1.8125 -0.640625 L 1.765625 -2.703125 L 1.8125 -3.171875 L 1.765625 -7.1875 L 1.84375 -7.609375 L 1.796875 -8.609375 L 1.8125 -9.03125 L 1.8125 -16.46875 L 2.03125 -16.9375 L 2.609375 -17.1875 L 3.34375 -17.015625 L 3.90625 -16.71875 L 4.265625 -16.421875 L 9.109375 -11.53125 L 9.796875 -11 L 11.53125 -9.25 L 11.90625 -9.078125 L 12.046875 -9.5 L 12.109375 -13.890625 L 12.046875 -14.4375 L 12.125 -15.46875 L 12.046875 -15.859375 L 12.078125 -16.375 L 12.34375 -16.890625 L 12.8125 -17.15625 L 15.859375 -17.1875 L 16.34375 -16.90625 L 16.59375 -16.421875 L 16.671875 -13.015625 L 16.59375 -12.421875 L 16.59375 -9.984375 L 16.671875 -9.578125 L 16.625 -0.609375 L 16.375 -0.125 L 15.828125 0.046875 L 15.140625 -0.03125 Z M 14.484375 -0.421875"/></g></g></g><g fill-opacity="1" fill="#000000"><g transform="translate(282.694383, 164.423207)"><g><path d="M 6.40625 0.046875 L 5.640625 0.03125 L 4.9375 -0.21875 L 4.609375 -0.765625 L 4.65625 -1.234375 L 4.6875 -2.65625 L 4.640625 -3.171875 L 4.65625 -5.15625 L 4.71875 -5.640625 L 4.640625 -9.296875 L 4.6875 -9.984375 L 4.65625 -10.484375 L 4.6875 -11.015625 L 4.640625 -11.703125 L 4.6875 -12.5 L 4.421875 -12.984375 L 3.953125 -13.234375 L 1.625 -13.28125 L 1.125 -13.234375 L 0.6875 -13.46875 L 0.46875 -13.921875 L 0.421875 -14.671875 L 0.46875 -15.90625 L 0.4375 -16.390625 L 0.734375 -16.96875 L 1.203125 -17.203125 L 2.921875 -17.109375 L 3.6875 -17.1875 L 5.125 -17.109375 L 5.578125 -17.203125 L 6.109375 -17.15625 L 6.625 -17.234375 L 7.09375 -17.203125 L 7.578125 -17.109375 L 9.578125 -17.203125 L 10.046875 -17.15625 L 10.5625 -17.234375 L 11.015625 -17.1875 L 12.546875 -17.1875 L 13.015625 -16.859375 L 13.28125 -16.375 L 13.25 -14.046875 L 12.953125 -13.5 L 12.546875 -13.234375 L 12.109375 -13.25 L 11.59375 -13.1875 L 10.671875 -13.296875 L 9.71875 -13.25 L 9.25 -12.953125 L 9.0625 -12.21875 L 8.984375 -10.09375 L 9.0625 -9.578125 L 9.015625 -5.625 L 9.078125 -5.078125 L 9.03125 -4.640625 L 9.0625 -3.65625 L 9.015625 -3.140625 L 9.078125 -2.203125 L 9.015625 -0.9375 L 8.765625 -0.25 L 8.046875 0 Z M 6.40625 0.046875"/></g></g></g><g fill-opacity="1" fill="#000000"><g transform="translate(155.433172, 189.923205)"><g><path d="M 1.796875 -0.71875 L 1.765625 -8.078125 L 1.8125 -8.640625 L 1.765625 -9.109375 L 1.796875 -9.578125 L 1.84375 -10.015625 L 1.796875 -10.578125 L 1.84375 -11.015625 L 1.8125 -11.53125 L 1.765625 -11.953125 L 1.859375 -14.703125 L 1.796875 -15.4375 L 1.859375 -16.453125 L 2.015625 -16.890625 L 2.546875 -17.15625 L 3.234375 -17.140625 L 3.75 -17.1875 L 5 -17.1875 L 5.453125 -17.140625 L 6.40625 -17.140625 L 7.171875 -17.1875 L 7.65625 -17.15625 L 8.390625 -17.203125 L 8.84375 -17.15625 L 9.796875 -17.203125 L 10.328125 -17.140625 L 11.8125 -17.15625 L 12.21875 -16.890625 L 12.515625 -16.15625 L 12.46875 -15.21875 L 12.515625 -13.96875 L 12.265625 -13.46875 L 11.78125 -13.234375 L 9.921875 -13.28125 L 9.40625 -13.234375 L 8.90625 -13.25 L 8.46875 -13.234375 L 7.75 -13.28125 L 6.96875 -13.28125 L 6.5 -12.953125 L 6.265625 -12.46875 L 6.3125 -11.359375 L 6.265625 -10.90625 L 6.265625 -10.21875 L 6.53125 -9.703125 L 7.015625 -9.5 L 7.5625 -9.53125 L 8.515625 -9.40625 L 9.8125 -9.5 L 11.015625 -9.453125 L 11.53125 -9.25 L 11.78125 -8.765625 L 11.8125 -6.578125 L 11.5625 -5.8125 L 11.046875 -5.578125 L 10.046875 -5.515625 L 9.546875 -5.578125 L 9.03125 -5.546875 L 8.546875 -5.59375 L 8.046875 -5.5 L 7.53125 -5.59375 L 7 -5.546875 L 6.5 -5.328125 L 6.28125 -4.828125 L 6.3125 -2.234375 L 6.265625 -1.765625 L 6.328125 -0.984375 L 6.03125 -0.25 L 5.515625 -0.03125 L 4.296875 0.078125 L 2.578125 0 L 2.03125 -0.25 Z M 1.796875 -0.71875"/></g></g></g><g fill-opacity="1" fill="#000000"><g transform="translate(169.543336, 189.923205)"><g><path d="M 9.84375 0.3125 L 8.375 0.25 L 6.28125 -0.375 L 5.8125 -0.5625 L 4.140625 -1.453125 L 3.828125 -1.8125 L 3.140625 -2.484375 L 1.984375 -4.046875 L 1.75 -4.484375 L 1.59375 -5 L 1.234375 -5.84375 L 0.953125 -7.390625 L 1.0625 -10.234375 L 1.25 -11.296875 L 1.71875 -12.640625 L 1.9375 -13.0625 L 2.78125 -14.28125 L 3.4375 -15.015625 L 4.21875 -15.5625 L 4.5625 -15.859375 L 5.8125 -16.640625 L 6.75 -16.890625 L 7.1875 -17.078125 L 7.6875 -17.234375 L 8.171875 -17.328125 L 9.890625 -17.421875 L 11.046875 -17.40625 L 14.265625 -16.390625 L 15.515625 -15.609375 L 16.5625 -14.65625 L 16.890625 -14.21875 L 17.1875 -13.921875 L 17.5 -13.5 L 17.671875 -13.0625 L 18.109375 -12.25 L 18.234375 -11.6875 L 18.4375 -11.171875 L 18.625 -10.265625 L 18.75 -8.5625 L 18.625 -6.84375 L 18.53125 -6.3125 L 18.390625 -5.921875 L 18.3125 -5.421875 L 18.140625 -4.953125 L 17.1875 -3.265625 L 16.859375 -2.828125 L 15.140625 -1.171875 L 12.953125 -0.203125 L 12.03125 0.09375 Z M 9.15625 -4 L 10.578125 -4.046875 L 11.046875 -4.171875 L 11.484375 -4.21875 L 11.875 -4.4375 L 12.328125 -4.640625 L 13.078125 -5.234375 L 13.375 -5.671875 L 13.59375 -6.03125 L 13.875 -6.40625 L 14.09375 -7.40625 L 14.234375 -8.640625 L 14.140625 -9.703125 L 13.96875 -10.140625 L 13.8125 -10.625 L 13.625 -11.078125 L 13.0625 -11.90625 L 12.296875 -12.46875 L 11 -13.03125 L 9.8125 -13.109375 L 8.6875 -13.015625 L 8.171875 -12.890625 L 7.734375 -12.671875 L 7.015625 -12.171875 L 6.65625 -11.859375 L 6.328125 -11.46875 L 6.109375 -11.046875 L 5.8125 -10.703125 L 5.671875 -10.265625 L 5.5 -9.359375 L 5.46875 -8.609375 L 5.59375 -7.390625 L 6.0625 -6.015625 L 6.375 -5.671875 L 6.625 -5.328125 L 7.390625 -4.65625 L 8.21875 -4.21875 L 8.671875 -4.171875 Z M 9.15625 -4"/></g></g></g><g fill-opacity="1" fill="#000000"><g transform="translate(189.960029, 189.923205)"><g><path d="M 1.859375 -0.890625 L 1.84375 -10.09375 L 1.796875 -10.5625 L 1.765625 -11.09375 L 1.84375 -12 L 1.796875 -12.5 L 1.84375 -12.953125 L 1.84375 -16.390625 L 2.0625 -16.9375 L 2.578125 -17.140625 L 3.046875 -17.203125 L 4.03125 -17.109375 L 4.515625 -17.203125 L 5.46875 -17.203125 L 5.96875 -16.90625 L 6.203125 -16.375 L 6.1875 -15.90625 L 6.265625 -14.5 L 6.203125 -13.53125 L 6.265625 -12.9375 L 6.234375 -4.609375 L 6.4375 -4.125 L 6.921875 -3.921875 L 7.4375 -3.984375 L 8.390625 -3.921875 L 8.84375 -4 L 9.328125 -3.90625 L 10.328125 -3.921875 L 10.84375 -3.859375 L 11.3125 -3.953125 L 11.828125 -4 L 12.265625 -3.703125 L 12.5 -2.96875 L 12.515625 -0.984375 L 12.25 -0.21875 L 11.78125 0.03125 L 6.921875 0 L 6.375 0.046875 L 5.921875 -0.03125 L 4.984375 0.03125 L 4.03125 -0.03125 L 3 0.046875 L 2.5 0 L 2.03125 -0.25 Z M 1.859375 -0.890625"/></g></g></g><g fill-opacity="1" fill="#000000"><g transform="translate(203.898429, 189.923205)"><g><path d="M 1.859375 -0.890625 L 1.84375 -10.09375 L 1.796875 -10.5625 L 1.765625 -11.09375 L 1.84375 -12 L 1.796875 -12.5 L 1.84375 -12.953125 L 1.84375 -16.390625 L 2.0625 -16.9375 L 2.578125 -17.140625 L 3.046875 -17.203125 L 4.03125 -17.109375 L 4.515625 -17.203125 L 5.46875 -17.203125 L 5.96875 -16.90625 L 6.203125 -16.375 L 6.1875 -15.90625 L 6.265625 -14.5 L 6.203125 -13.53125 L 6.265625 -12.9375 L 6.234375 -4.609375 L 6.4375 -4.125 L 6.921875 -3.921875 L 7.4375 -3.984375 L 8.390625 -3.921875 L 8.84375 -4 L 9.328125 -3.90625 L 10.328125 -3.921875 L 10.84375 -3.859375 L 11.3125 -3.953125 L 11.828125 -4 L 12.265625 -3.703125 L 12.5 -2.96875 L 12.515625 -0.984375 L 12.25 -0.21875 L 11.78125 0.03125 L 6.921875 0 L 6.375 0.046875 L 5.921875 -0.03125 L 4.984375 0.03125 L 4.03125 -0.03125 L 3 0.046875 L 2.5 0 L 2.03125 -0.25 Z M 1.859375 -0.890625"/></g></g></g><g fill-opacity="1" fill="#000000"><g transform="translate(217.836829, 189.923205)"><g><path d="M 9.84375 0.3125 L 8.375 0.25 L 6.28125 -0.375 L 5.8125 -0.5625 L 4.140625 -1.453125 L 3.828125 -1.8125 L 3.140625 -2.484375 L 1.984375 -4.046875 L 1.75 -4.484375 L 1.59375 -5 L 1.234375 -5.84375 L 0.953125 -7.390625 L 1.0625 -10.234375 L 1.25 -11.296875 L 1.71875 -12.640625 L 1.9375 -13.0625 L 2.78125 -14.28125 L 3.4375 -15.015625 L 4.21875 -15.5625 L 4.5625 -15.859375 L 5.8125 -16.640625 L 6.75 -16.890625 L 7.1875 -17.078125 L 7.6875 -17.234375 L 8.171875 -17.328125 L 9.890625 -17.421875 L 11.046875 -17.40625 L 14.265625 -16.390625 L 15.515625 -15.609375 L 16.5625 -14.65625 L 16.890625 -14.21875 L 17.1875 -13.921875 L 17.5 -13.5 L 17.671875 -13.0625 L 18.109375 -12.25 L 18.234375 -11.6875 L 18.4375 -11.171875 L 18.625 -10.265625 L 18.75 -8.5625 L 18.625 -6.84375 L 18.53125 -6.3125 L 18.390625 -5.921875 L 18.3125 -5.421875 L 18.140625 -4.953125 L 17.1875 -3.265625 L 16.859375 -2.828125 L 15.140625 -1.171875 L 12.953125 -0.203125 L 12.03125 0.09375 Z M 9.15625 -4 L 10.578125 -4.046875 L 11.046875 -4.171875 L 11.484375 -4.21875 L 11.875 -4.4375 L 12.328125 -4.640625 L 13.078125 -5.234375 L 13.375 -5.671875 L 13.59375 -6.03125 L 13.875 -6.40625 L 14.09375 -7.40625 L 14.234375 -8.640625 L 14.140625 -9.703125 L 13.96875 -10.140625 L 13.8125 -10.625 L 13.625 -11.078125 L 13.0625 -11.90625 L 12.296875 -12.46875 L 11 -13.03125 L 9.8125 -13.109375 L 8.6875 -13.015625 L 8.171875 -12.890625 L 7.734375 -12.671875 L 7.015625 -12.171875 L 6.65625 -11.859375 L 6.328125 -11.46875 L 6.109375 -11.046875 L 5.8125 -10.703125 L 5.671875 -10.265625 L 5.5 -9.359375 L 5.46875 -8.609375 L 5.59375 -7.390625 L 6.0625 -6.015625 L 6.375 -5.671875 L 6.625 -5.328125 L 7.390625 -4.65625 L 8.21875 -4.21875 L 8.671875 -4.171875 Z M 9.15625 -4"/></g></g></g><g fill-opacity="1" fill="#000000"><g transform="translate(238.253522, 189.923205)"><g><path d="M 6.015625 -0.546875 L 5.859375 -0.953125 L 5.640625 -1.421875 L 3.65625 -7 L 3.4375 -7.390625 L 2.75 -9.234375 L 2.609375 -9.765625 L 1.59375 -12.515625 L 1.375 -12.9375 L 0.34375 -15.734375 L 0.21875 -16.390625 L 0.3125 -16.96875 L 0.828125 -17.109375 L 1.34375 -17.140625 L 1.796875 -17.203125 L 2.234375 -17.109375 L 4.203125 -17.078125 L 4.65625 -16.859375 L 5.109375 -16.46875 L 5.296875 -15.984375 L 5.40625 -15.484375 L 5.6875 -14.53125 L 5.890625 -14.109375 L 7.46875 -8.765625 L 7.5625 -8.171875 L 7.75 -8.203125 L 8.125 -9.125 L 8.21875 -9.640625 L 8.46875 -10.015625 L 9.359375 -12.859375 L 9.71875 -13.75 L 10.53125 -16.171875 L 10.953125 -16.671875 L 11.4375 -16.90625 L 11.984375 -16.90625 L 12.5 -16.625 L 12.84375 -16.125 L 13.03125 -15.6875 L 13.234375 -15.265625 L 13.53125 -14.28125 L 13.71875 -13.8125 L 13.96875 -12.890625 L 15.015625 -10.109375 L 15.140625 -9.625 L 15.640625 -8.21875 L 15.875 -8.203125 L 16.03125 -8.671875 L 16.203125 -9.703125 L 16.515625 -10.734375 L 16.625 -11.21875 L 17.96875 -15.53125 L 18.1875 -15.953125 L 18.3125 -16.421875 L 18.734375 -16.9375 L 19.25 -17.1875 L 19.71875 -17.109375 L 20.234375 -17.15625 L 21.203125 -17.109375 L 22.0625 -17.15625 L 22.5625 -17.078125 L 23.046875 -16.96875 L 23.203125 -16.375 L 22.734375 -14.875 L 22.484375 -14.4375 L 22.359375 -13.890625 L 20.796875 -9.71875 L 20.6875 -9.296875 L 20.46875 -8.859375 L 20.28125 -8.171875 L 19.46875 -6.09375 L 19.25 -5.671875 L 17.765625 -1.40625 L 17.546875 -0.953125 L 17.40625 -0.484375 L 17.03125 -0.046875 L 16.453125 0.140625 L 16.03125 0.21875 L 15.5625 0.25 L 15 -0.046875 L 14.53125 -0.5625 L 14.390625 -1.03125 L 14.015625 -1.84375 L 12.609375 -5.625 L 12.203125 -6.453125 L 12.046875 -6.96875 L 11.8125 -7.390625 L 11.5625 -7.46875 L 11.25 -6.5 L 10.796875 -5.578125 L 10.65625 -5.0625 L 9.890625 -3.234375 L 9.765625 -2.84375 L 9.546875 -2.328125 L 9.421875 -1.921875 L 9.1875 -1.46875 L 9.03125 -0.9375 L 8.8125 -0.515625 L 8.421875 0 L 7.875 0.203125 L 6.953125 0.21875 L 6.40625 -0.09375 Z M 6.015625 -0.546875"/></g></g></g><g fill-opacity="1" fill="#000000"><g transform="translate(262.400143, 189.923205)"><g><path d="M 8.21875 0.09375 L 7.734375 -0.03125 L 6.53125 -0.03125 L 5.796875 0.078125 L 4.8125 -0.03125 L 4.3125 0.03125 L 3.5625 0.046875 L 2.84375 -0.046875 L 2.375 0 L 1.921875 0 L 1.421875 -0.21875 L 1.171875 -0.890625 L 1.25 -3.140625 L 1.515625 -3.578125 L 3.140625 -4.078125 L 3.40625 -4.8125 L 3.34375 -12.34375 L 3.125 -13.015625 L 2.65625 -13.296875 L 2.15625 -13.296875 L 1.625 -13.578125 L 1.34375 -14.0625 L 1.40625 -14.53125 L 1.328125 -16.34375 L 1.578125 -16.9375 L 2.0625 -17.1875 L 2.625 -17.1875 L 3.09375 -17.109375 L 5.109375 -17.109375 L 5.59375 -17.203125 L 6.03125 -17.15625 L 9.015625 -17.15625 L 9.453125 -16.890625 L 9.75 -16.421875 L 9.71875 -13.984375 L 9.46875 -13.59375 L 8.953125 -13.40625 L 8.46875 -13.328125 L 7.921875 -13.109375 L 7.75 -12.546875 L 7.65625 -10.0625 L 7.75 -8.296875 L 7.703125 -7.75 L 7.734375 -5.0625 L 7.65625 -4.59375 L 7.953125 -4.03125 L 8.546875 -3.828125 L 9.0625 -3.828125 L 9.59375 -3.5625 L 9.890625 -3.09375 L 9.890625 -0.65625 L 9.640625 -0.203125 L 9.203125 0.046875 Z M 8.21875 0.09375"/></g></g></g><g fill-opacity="1" fill="#000000"><g transform="translate(274.277267, 189.923205)"><g><path d="M 14.484375 -0.421875 L 14.109375 -0.734375 L 13.46875 -1.453125 L 9.671875 -5.234375 L 9.25 -5.5 L 8.9375 -5.859375 L 7.1875 -7.53125 L 6.875 -7.953125 L 6.546875 -8.078125 L 6.375 -7.65625 L 6.328125 -7.171875 L 6.3125 -0.953125 L 6.0625 -0.203125 L 5.578125 0.046875 L 5.0625 0.078125 L 4.09375 0 L 3.5625 0.046875 L 2.546875 0 L 2.03125 -0.171875 L 1.8125 -0.640625 L 1.765625 -2.703125 L 1.8125 -3.171875 L 1.765625 -7.1875 L 1.84375 -7.609375 L 1.796875 -8.609375 L 1.8125 -9.03125 L 1.8125 -16.46875 L 2.03125 -16.9375 L 2.609375 -17.1875 L 3.34375 -17.015625 L 3.90625 -16.71875 L 4.265625 -16.421875 L 9.109375 -11.53125 L 9.796875 -11 L 11.53125 -9.25 L 11.90625 -9.078125 L 12.046875 -9.5 L 12.109375 -13.890625 L 12.046875 -14.4375 L 12.125 -15.46875 L 12.046875 -15.859375 L 12.078125 -16.375 L 12.34375 -16.890625 L 12.8125 -17.15625 L 15.859375 -17.1875 L 16.34375 -16.90625 L 16.59375 -16.421875 L 16.671875 -13.015625 L 16.59375 -12.421875 L 16.59375 -9.984375 L 16.671875 -9.578125 L 16.625 -0.609375 L 16.375 -0.125 L 15.828125 0.046875 L 15.140625 -0.03125 Z M 14.484375 -0.421875"/></g></g></g><g fill-opacity="1" fill="#000000"><g transform="translate(293.516088, 189.923205)"><g><path d="M 8.515625 0.25 L 8.03125 0.09375 L 6.625 -0.140625 L 6.203125 -0.265625 L 4.515625 -1.25 L 3.703125 -1.8125 L 2.71875 -2.84375 L 2.15625 -3.6875 L 1.71875 -4.515625 L 1.03125 -6.828125 L 0.90625 -8.546875 L 0.9375 -9.328125 L 1.375 -11.765625 L 2.28125 -13.59375 L 2.546875 -13.96875 L 2.921875 -14.328125 L 3.234375 -14.734375 L 4.3125 -15.6875 L 5.671875 -16.515625 L 7.5625 -17.203125 L 8.03125 -17.234375 L 8.4375 -17.375 L 8.9375 -17.40625 L 11.21875 -17.3125 L 12.375 -16.984375 L 12.890625 -16.890625 L 14.609375 -15.984375 L 14.96875 -15.6875 L 15.359375 -15.3125 L 15.90625 -14.875 L 16.890625 -13.453125 L 17.109375 -13.015625 L 17.453125 -12 L 17.3125 -11.59375 L 16.6875 -11.3125 L 15.515625 -11.390625 L 14.78125 -11.296875 L 14.015625 -11.3125 L 13.421875 -11.484375 L 12.90625 -11.90625 L 12.59375 -12.328125 L 12.296875 -12.640625 L 11.828125 -12.953125 L 11.359375 -13.15625 L 10.453125 -13.40625 L 8.953125 -13.359375 L 8.546875 -13.15625 L 8.078125 -13.109375 L 7.65625 -12.890625 L 6.796875 -12.265625 L 6.03125 -11.125 L 5.640625 -10.234375 L 5.46875 -9.28125 L 5.5 -7.859375 L 5.625 -7.0625 L 5.8125 -6.359375 L 6.28125 -5.46875 L 6.546875 -5.125 L 7.296875 -4.4375 L 8.609375 -3.90625 L 9.875 -3.75 L 10.5 -3.78125 L 11.46875 -4 L 12.265625 -4.3125 L 12.609375 -4.59375 L 12.984375 -5 L 13.234375 -5.421875 L 13.15625 -5.84375 L 12.78125 -6.015625 L 12.34375 -6.09375 L 11.125 -5.984375 L 10.40625 -6.03125 L 9.96875 -6.3125 L 9.75 -6.703125 L 9.75 -9.03125 L 9.96875 -9.5 L 10.453125 -9.75 L 11.390625 -9.8125 L 12.859375 -9.71875 L 16.171875 -9.796875 L 16.6875 -9.71875 L 17.203125 -9.703125 L 17.671875 -9.453125 L 17.921875 -9.03125 L 17.96875 -8.09375 L 17.921875 -7.640625 L 17.921875 -7.140625 L 17.828125 -6.703125 L 17.796875 -6.28125 L 17.59375 -5.34375 L 17.109375 -3.90625 L 16.8125 -3.5625 L 16.59375 -3.125 L 16.34375 -2.703125 L 16.046875 -2.359375 L 15.6875 -2.0625 L 15.3125 -1.671875 L 14.5625 -1.078125 L 12.8125 -0.203125 L 10.96875 0.25 Z M 8.515625 0.25"/></g></g></g><g fill-opacity="1" fill="#000000"><g transform="translate(155.433172, 215.423203)"><g><path d="M 2.546875 0.078125 L 2.0625 -0.25 L 1.796875 -0.765625 L 1.8125 -6.1875 L 1.765625 -6.65625 L 1.84375 -9.125 L 1.796875 -9.625 L 1.8125 -13.546875 L 1.765625 -13.984375 L 1.84375 -14.953125 L 1.765625 -16.453125 L 2.03125 -16.96875 L 2.578125 -17.203125 L 3.265625 -17.015625 L 3.828125 -16.59375 L 4.46875 -15.9375 L 4.859375 -15.59375 L 5.5 -14.828125 L 5.84375 -14.53125 L 8.078125 -12.046875 L 8.609375 -11.5625 L 9.0625 -11 L 9.40625 -10.65625 L 9.703125 -10.234375 L 10.21875 -10.046875 L 10.65625 -10.328125 L 12.15625 -11.859375 L 12.46875 -12.265625 L 14.625 -14.484375 L 14.96875 -14.921875 L 15.265625 -15.1875 L 15.59375 -15.59375 L 16.625 -16.671875 L 17.140625 -16.984375 L 17.84375 -17.203125 L 18.359375 -16.9375 L 18.65625 -16.421875 L 18.609375 -15.953125 L 18.625 -14.953125 L 18.609375 -14.53125 L 18.65625 -13.46875 L 18.625 -13.015625 L 18.65625 -10.578125 L 18.609375 -10.046875 L 18.65625 -2.671875 L 18.609375 -2.1875 L 18.6875 -0.90625 L 18.390625 -0.203125 L 17.875 0.078125 L 14.90625 -0.03125 L 14.390625 -0.171875 L 14.1875 -0.734375 L 14.1875 -1.109375 L 14.140625 -2.203125 L 14.1875 -2.65625 L 14.140625 -3.5625 L 14.1875 -4.515625 L 14.109375 -5.5 L 14.15625 -6.84375 L 13.96875 -7.21875 L 13.640625 -7.0625 L 12.640625 -6.03125 L 12.296875 -5.796875 L 11.609375 -4.984375 L 11.3125 -4.6875 L 10.96875 -4.3125 L 10.484375 -3.953125 L 9.9375 -3.984375 L 9.421875 -4.34375 L 8.765625 -4.984375 L 8.4375 -5.375 L 7.4375 -6.375 L 7.140625 -6.75 L 6.75 -7.0625 L 6.5 -7.171875 L 6.28125 -6.953125 L 6.28125 -5.984375 L 6.328125 -5.453125 L 6.28125 -4.5625 L 6.3125 -4.046875 L 6.234375 -3.296875 L 6.3125 -0.71875 L 6.015625 -0.265625 L 5.328125 0.03125 L 4.546875 -0.03125 L 4 0.046875 L 3.046875 0 Z M 2.546875 0.078125"/></g></g></g><g fill-opacity="1" fill="#000000"><g transform="translate(176.684185, 215.423203)"><g><path d="M 8.546875 0.078125 L 8.046875 0.03125 L 7.5625 0.078125 L 7 0.046875 L 6.53125 -0.046875 L 5.515625 0.03125 L 5.078125 0 L 4.546875 0.046875 L 2.78125 0.03125 L 2.03125 -0.296875 L 1.84375 -0.953125 L 1.796875 -1.5 L 1.859375 -3.1875 L 1.796875 -3.6875 L 1.84375 -4.140625 L 1.859375 -8.125 L 1.796875 -8.5625 L 1.8125 -10.578125 L 1.859375 -11.046875 L 1.796875 -11.5625 L 1.84375 -13.96875 L 1.765625 -14.5 L 1.84375 -15.515625 L 1.796875 -16.453125 L 2.0625 -16.96875 L 2.578125 -17.15625 L 3.0625 -17.140625 L 3.5625 -17.1875 L 4 -17.140625 L 4.46875 -17.234375 L 4.953125 -17.15625 L 6.96875 -17.203125 L 7.46875 -17.15625 L 7.875 -17.1875 L 8.375 -17.140625 L 8.90625 -17.1875 L 10.90625 -17.203125 L 11.34375 -17.109375 L 11.859375 -17.109375 L 12.34375 -16.90625 L 12.5625 -16.453125 L 12.609375 -14.96875 L 12.59375 -14.484375 L 12.609375 -13.984375 L 12.375 -13.546875 L 11.859375 -13.25 L 11.390625 -13.234375 L 7.875 -13.28125 L 7.40625 -13.1875 L 6.953125 -13.203125 L 6.40625 -13.015625 L 6.1875 -12.546875 L 6.1875 -11.78125 L 6.375 -11.015625 L 6.890625 -10.796875 L 8.328125 -10.84375 L 9.359375 -10.78125 L 9.875 -10.828125 L 11.3125 -10.828125 L 11.875 -10.5 L 12.125 -9.8125 L 12.046875 -7.609375 L 11.875 -7.125 L 11.390625 -6.921875 L 10.828125 -6.953125 L 10.328125 -6.890625 L 9.328125 -6.921875 L 8.390625 -6.875 L 7.609375 -6.953125 L 6.875 -6.921875 L 6.4375 -6.65625 L 6.203125 -6.140625 L 6.203125 -4.59375 L 6.40625 -4.140625 L 6.921875 -3.90625 L 7.46875 -3.953125 L 7.921875 -3.875 L 8.46875 -3.90625 L 8.953125 -3.859375 L 9.765625 -3.953125 L 11.015625 -3.921875 L 11.484375 -3.859375 L 12.046875 -3.90625 L 12.5625 -3.6875 L 12.84375 -3.1875 L 12.84375 -0.71875 L 12.5625 -0.203125 L 12.046875 0.03125 Z M 8.546875 0.078125"/></g></g></g><g fill-opacity="1" fill="#000000"><g transform="translate(191.48144, 215.423203)"><g/></g></g><g fill-opacity="1" fill="#000000"><g transform="translate(198.867926, 215.423203)"><g><path d="M 1.84375 -0.765625 L 1.796875 -1.234375 L 1.84375 -6.609375 L 1.765625 -7.34375 L 1.859375 -12.03125 L 1.796875 -13.0625 L 1.84375 -14.5 L 1.8125 -14.953125 L 1.84375 -15.46875 L 1.796875 -15.90625 L 1.796875 -16.453125 L 2.03125 -16.96875 L 2.578125 -17.203125 L 5.546875 -17.15625 L 5.984375 -17.25 L 6.953125 -17.140625 L 7.390625 -17.234375 L 9.921875 -17.15625 L 10.875 -16.9375 L 11.296875 -16.796875 L 11.765625 -16.5625 L 12.171875 -16.328125 L 12.515625 -16.046875 L 12.890625 -15.8125 L 13.25 -15.46875 L 14.0625 -14.328125 L 14.234375 -13.8125 L 14.4375 -12.9375 L 14.484375 -12.171875 L 14.453125 -11.34375 L 14.15625 -10.453125 L 13.703125 -9.5 L 13.53125 -9.03125 L 13.765625 -8.46875 L 14.15625 -8.125 L 14.484375 -7.75 L 14.921875 -6.75 L 15.1875 -5.859375 L 15.140625 -3.875 L 14.953125 -3.40625 L 14.796875 -2.953125 L 14.5625 -2.453125 L 13.890625 -1.546875 L 12.90625 -0.765625 L 12.46875 -0.546875 L 11.09375 -0.140625 L 10.65625 -0.078125 L 8.125 0.046875 L 7.640625 -0.03125 L 4.078125 0.03125 L 3.34375 -0.046875 L 2.53125 0.03125 L 2.0625 -0.265625 Z M 6.875 -10.484375 L 8.765625 -10.5625 L 9.46875 -10.796875 L 9.84375 -11.09375 L 10.015625 -11.8125 L 9.9375 -12.546875 L 9.75 -12.9375 L 9.359375 -13.125 L 6.828125 -13.296875 L 6.359375 -13.015625 L 6.0625 -12.296875 L 6.09375 -11.46875 L 6.359375 -10.78125 Z M 6.796875 -3.921875 L 8.6875 -3.875 L 10.046875 -4 L 10.453125 -4.265625 L 10.734375 -4.609375 L 10.84375 -5.328125 L 10.703125 -5.9375 L 10.453125 -6.375 L 10.046875 -6.546875 L 7.734375 -6.78125 L 7.21875 -6.71875 L 6.75 -6.796875 L 6.328125 -6.484375 L 6.109375 -6.0625 L 6.03125 -4.59375 L 6.359375 -4.09375 Z M 6.796875 -3.921875"/></g></g></g><g fill-opacity="1" fill="#000000"><g transform="translate(215.800076, 215.423203)"><g><path d="M 14.484375 0.046875 L 13.96875 0 L 13.40625 -0.25 L 12.90625 -0.609375 L 12.765625 -1.0625 L 12.546875 -1.515625 L 12.078125 -1.921875 L 11.53125 -2.1875 L 11 -2.109375 L 10.5625 -2.15625 L 8.15625 -2.140625 L 7.703125 -2.203125 L 6.671875 -2.109375 L 6.203125 -2.1875 L 5.6875 -1.921875 L 5.234375 -1.453125 L 4.78125 -0.640625 L 4.3125 -0.203125 L 3.75 -0.03125 L 2.375 0.03125 L 1.890625 -0.03125 L 0.9375 0.03125 L 0.4375 -0.125 L 0.3125 -0.734375 L 0.46875 -1.234375 L 0.953125 -2.203125 L 1.078125 -2.65625 L 1.34375 -3 L 1.71875 -3.984375 L 2.15625 -4.765625 L 2.328125 -5.25 L 2.578125 -5.625 L 2.71875 -6.15625 L 5.234375 -11.421875 L 5.375 -11.859375 L 5.640625 -12.328125 L 5.765625 -12.8125 L 6.03125 -13.1875 L 7.015625 -15.4375 L 7.234375 -15.78125 L 7.40625 -16.28125 L 7.640625 -16.6875 L 8.078125 -17.109375 L 8.859375 -17.375 L 9.671875 -17.140625 L 10.09375 -16.6875 L 10.5625 -15.828125 L 10.703125 -15.390625 L 10.96875 -14.953125 L 11.125 -14.453125 L 12.734375 -11.046875 L 12.90625 -10.53125 L 13.421875 -9.625 L 13.578125 -9.234375 L 13.796875 -8.859375 L 13.9375 -8.328125 L 14.1875 -7.859375 L 14.4375 -7.484375 L 15.359375 -5.25 L 15.859375 -4.375 L 16.203125 -3.46875 L 16.859375 -2.1875 L 17.234375 -1.28125 L 17.40625 -0.71875 L 17.328125 -0.125 L 16.640625 0 L 15.875 0.03125 L 15.421875 -0.03125 Z M 8.90625 -6.0625 L 9.890625 -6.09375 L 10.265625 -6.28125 L 10.359375 -6.71875 L 9.203125 -9.421875 L 8.859375 -9.625 L 8.59375 -9.40625 L 7.4375 -6.75 L 7.46875 -6.28125 L 7.859375 -6.109375 L 8.421875 -6.15625 Z M 8.90625 -6.0625"/></g></g></g><g fill-opacity="1" fill="#000000"><g transform="translate(234.351806, 215.423203)"><g><path d="M 8.546875 0.203125 L 8.078125 0.171875 L 7.640625 0.078125 L 7.140625 -0.09375 L 6.703125 -0.203125 L 5.59375 -0.65625 L 4.546875 -1.234375 L 3.4375 -2.1875 L 2.4375 -3.265625 L 1.375 -5.40625 L 1.03125 -6.796875 L 0.890625 -8.59375 L 1.125 -10.703125 L 1.375 -11.703125 L 1.984375 -13.078125 L 2.453125 -13.796875 L 3.125 -14.625 L 4.171875 -15.59375 L 4.890625 -16.125 L 6.703125 -16.984375 L 9.078125 -17.453125 L 10.609375 -17.421875 L 11.09375 -17.359375 L 11.5625 -17.328125 L 13.921875 -16.546875 L 15.59375 -15.484375 L 16.28125 -14.78125 L 16.546875 -14.3125 L 16.890625 -13.890625 L 17.109375 -13.5 L 17.375 -13.109375 L 17.53125 -12.59375 L 17.703125 -12.15625 L 17.84375 -11.609375 L 17.671875 -11.125 L 17.25 -10.921875 L 16.515625 -10.84375 L 15.828125 -10.921875 L 15.34375 -10.90625 L 14.828125 -10.921875 L 14.390625 -10.875 L 13.8125 -11.140625 L 13.359375 -11.609375 L 13.078125 -11.984375 L 12.375 -12.6875 L 12.03125 -12.953125 L 11.59375 -13.125 L 10.828125 -13.359375 L 9.765625 -13.40625 L 8.125 -13.1875 L 7.46875 -12.8125 L 6.875 -12.34375 L 6.28125 -11.65625 L 6.03125 -11.1875 L 5.671875 -10.3125 L 5.5 -9.328125 L 5.5 -7.828125 L 5.578125 -7.296875 L 5.6875 -6.84375 L 5.859375 -6.5 L 6.03125 -6.015625 L 6.578125 -5.15625 L 7.296875 -4.515625 L 8.15625 -4.078125 L 9.03125 -3.75 L 9.75 -3.6875 L 11.046875 -3.75 L 11.90625 -4.21875 L 12.265625 -4.375 L 12.671875 -4.71875 L 13.234375 -5.34375 L 13.46875 -5.8125 L 13.875 -6.203125 L 14.4375 -6.5 L 14.921875 -6.484375 L 15.421875 -6.5 L 15.90625 -6.4375 L 17.28125 -6.53125 L 17.765625 -6.203125 L 17.921875 -5.765625 L 17.28125 -3.90625 L 16.765625 -3.015625 L 16.203125 -2.28125 L 15.515625 -1.59375 L 14.3125 -0.734375 L 13.890625 -0.546875 L 13.375 -0.375 L 12.9375 -0.125 L 11.484375 0.171875 L 9.765625 0.296875 Z M 8.546875 0.203125"/></g></g></g><g fill-opacity="1" fill="#000000"><g transform="translate(253.811476, 215.423203)"><g><path d="M 2.546875 0.078125 L 2.109375 -0.21875 L 1.859375 -0.984375 L 1.8125 -2.234375 L 1.859375 -2.71875 L 1.8125 -3.234375 L 1.84375 -3.640625 L 1.796875 -4.640625 L 1.859375 -5.640625 L 1.8125 -6.09375 L 1.84375 -7.046875 L 1.765625 -7.578125 L 1.859375 -8.59375 L 1.796875 -9.015625 L 1.84375 -12.03125 L 1.765625 -12.515625 L 1.84375 -13.015625 L 1.796875 -16 L 1.84375 -16.421875 L 2.0625 -16.890625 L 2.546875 -17.203125 L 3.09375 -17.234375 L 3.578125 -17.1875 L 4.046875 -17.203125 L 5.28125 -17.078125 L 5.984375 -16.859375 L 6.3125 -16.46875 L 6.265625 -15.46875 L 6.28125 -14.703125 L 6.234375 -14.109375 L 6.28125 -13.671875 L 6.3125 -11.90625 L 6.28125 -11.4375 L 6.40625 -10.921875 L 6.828125 -10.625 L 7.359375 -10.625 L 7.859375 -10.78125 L 8.390625 -10.84375 L 8.84375 -11.046875 L 9.703125 -11.65625 L 10.265625 -12.4375 L 10.40625 -12.953125 L 10.5625 -13.328125 L 10.75 -14.921875 L 10.734375 -15.421875 L 10.796875 -15.875 L 10.796875 -16.421875 L 11 -16.890625 L 11.515625 -17.1875 L 12.25 -17.203125 L 12.984375 -17.109375 L 13.796875 -17.203125 L 14.53125 -17.140625 L 15.078125 -16.90625 L 15.296875 -16.421875 L 15.21875 -14.90625 L 15.265625 -14.40625 L 15.09375 -12.84375 L 14.671875 -11.421875 L 14.5 -10.96875 L 14.140625 -10.328125 L 13.359375 -9.328125 L 12.59375 -8.6875 L 12.265625 -8.171875 L 12.375 -7.609375 L 13.1875 -6.3125 L 13.375 -5.890625 L 13.640625 -5.421875 L 13.921875 -5.078125 L 14.671875 -3.828125 L 15 -3.4375 L 16.515625 -0.65625 L 16.390625 -0.125 L 15.875 0 L 15.390625 -0.03125 L 14.953125 0.03125 L 12.46875 0.046875 L 11.90625 -0.203125 L 11.4375 -0.65625 L 11.1875 -0.984375 L 10.953125 -1.453125 L 10.65625 -1.8125 L 10.1875 -2.71875 L 9.96875 -3.0625 L 9.796875 -3.484375 L 8.78125 -5.125 L 8.609375 -5.640625 L 8.375 -6.03125 L 7.8125 -6.453125 L 7.140625 -6.5 L 6.53125 -6.234375 L 6.265625 -5.8125 L 6.328125 -3.234375 L 6.265625 -2.71875 L 6.3125 -0.765625 L 6.03125 -0.21875 L 5.546875 -0.03125 L 4.765625 0.046875 L 4.078125 0 Z M 2.546875 0.078125"/></g></g></g></svg>